<svg id="Capa_1" enable-background="new 0 0 512 512" height="512" viewBox="0 0 512 512" width="512" xmlns="http://www.w3.org/2000/svg" xmlns:xlink="http://www.w3.org/1999/xlink"><linearGradient id="lg1"><stop offset="0" stop-color="#e4989d"/><stop offset=".1925" stop-color="#e38d93"/><stop offset=".5311" stop-color="#df6f79"/><stop offset=".6532" stop-color="#dd636e"/><stop offset="1" stop-color="#da4a54"/></linearGradient><radialGradient id="SVGID_1_" cx="8.729" cy="460.7" gradientTransform="matrix(1 0 0 .562 0 201.583)" gradientUnits="userSpaceOnUse" r="36.72" xlink:href="#lg1"/><linearGradient id="lg2"><stop offset="0" stop-color="#fbe2dd"/><stop offset=".5145" stop-color="#eab1b7"/><stop offset="1" stop-color="#e4989d"/></linearGradient><radialGradient id="SVGID_2_" cx=".906" cy="437.23" gradientUnits="userSpaceOnUse" r="39.579" xlink:href="#lg2"/><radialGradient id="SVGID_3_" cx="8.729" cy="399.21" gradientTransform="matrix(1 0 0 .562 0 174.678)" gradientUnits="userSpaceOnUse" r="36.72" xlink:href="#lg1"/><radialGradient id="SVGID_4_" cx=".906" cy="375.741" gradientUnits="userSpaceOnUse" r="39.579" xlink:href="#lg2"/><linearGradient id="lg3"><stop offset=".0988" stop-color="#dd636e"/><stop offset=".6173" stop-color="#d82e3d"/><stop offset=".726" stop-color="#d32e3b"/><stop offset=".8594" stop-color="#c42f37"/><stop offset="1" stop-color="#ac3030"/></linearGradient><radialGradient id="SVGID_5_" cx="88.565" cy="408.342" gradientTransform="matrix(-1 0 0 -.753 177.129 716.005)" gradientUnits="userSpaceOnUse" r="81.017" xlink:href="#lg3"/><radialGradient id="SVGID_6_" cx="88.565" cy="469.832" gradientTransform="matrix(-1 0 0 -.753 177.129 823.824)" gradientUnits="userSpaceOnUse" r="81.017" xlink:href="#lg3"/><linearGradient id="lg4"><stop offset="0" stop-color="#f6e781"/><stop offset=".4756" stop-color="#f5e056"/><stop offset=".65" stop-color="#f4dd45"/><stop offset=".9873" stop-color="#f1d334"/><stop offset="1" stop-color="#f1d333"/></linearGradient><radialGradient id="SVGID_7_" cx="143.452" cy="460.7" gradientTransform="matrix(1 0 0 .562 0 201.583)" gradientUnits="userSpaceOnUse" r="36.72" xlink:href="#lg4"/><linearGradient id="lg5"><stop offset="0" stop-color="#fffbe4"/><stop offset=".5544" stop-color="#f9efaf"/><stop offset=".6285" stop-color="#f8eea7"/><stop offset="1" stop-color="#f6e781"/></linearGradient><radialGradient id="SVGID_8_" cx="135.629" cy="437.23" gradientUnits="userSpaceOnUse" r="39.579" xlink:href="#lg5"/><radialGradient id="SVGID_9_" cx="143.452" cy="399.21" gradientTransform="matrix(1 0 0 .562 0 174.678)" gradientUnits="userSpaceOnUse" r="36.72" xlink:href="#lg4"/><radialGradient id="SVGID_10_" cx="135.629" cy="375.741" gradientUnits="userSpaceOnUse" r="39.579" xlink:href="#lg5"/><radialGradient id="SVGID_11_" cx="143.452" cy="337.72" gradientTransform="matrix(1 0 0 .562 0 147.773)" gradientUnits="userSpaceOnUse" r="36.72" xlink:href="#lg4"/><radialGradient id="SVGID_12_" cx="135.629" cy="314.251" gradientUnits="userSpaceOnUse" r="39.579" xlink:href="#lg5"/><radialGradient id="SVGID_13_" cx="143.452" cy="276.23" gradientTransform="matrix(1 0 0 .562 0 120.867)" gradientUnits="userSpaceOnUse" r="36.72" xlink:href="#lg4"/><radialGradient id="SVGID_14_" cx="135.629" cy="252.761" gradientUnits="userSpaceOnUse" r="39.579" xlink:href="#lg5"/><linearGradient id="lg6"><stop offset="0" stop-color="#aad880"/><stop offset=".1646" stop-color="#a6d67a"/><stop offset=".3846" stop-color="#9bd069"/><stop offset=".5974" stop-color="#8bc852"/><stop offset="1" stop-color="#528e61"/></linearGradient><radialGradient id="SVGID_15_" cx="278.175" cy="460.7" gradientTransform="matrix(1 0 0 .562 0 201.583)" gradientUnits="userSpaceOnUse" r="36.72" xlink:href="#lg6"/><linearGradient id="lg7"><stop offset="0" stop-color="#e7f6ec"/><stop offset=".5145" stop-color="#daefc8"/><stop offset="1" stop-color="#cbe7af"/></linearGradient><radialGradient id="SVGID_16_" cx="270.352" cy="437.23" gradientUnits="userSpaceOnUse" r="39.579" xlink:href="#lg7"/><radialGradient id="SVGID_17_" cx="278.175" cy="399.21" gradientTransform="matrix(1 0 0 .562 0 174.678)" gradientUnits="userSpaceOnUse" r="36.72" xlink:href="#lg6"/><radialGradient id="SVGID_18_" cx="270.352" cy="375.741" gradientUnits="userSpaceOnUse" r="39.579" xlink:href="#lg7"/><radialGradient id="SVGID_19_" cx="278.175" cy="337.72" gradientTransform="matrix(1 0 0 .562 0 147.773)" gradientUnits="userSpaceOnUse" r="36.72" xlink:href="#lg6"/><radialGradient id="SVGID_20_" cx="270.352" cy="314.251" gradientUnits="userSpaceOnUse" r="39.579" xlink:href="#lg7"/><radialGradient id="SVGID_21_" cx="278.175" cy="276.23" gradientTransform="matrix(1 0 0 .562 0 120.867)" gradientUnits="userSpaceOnUse" r="36.72" xlink:href="#lg6"/><radialGradient id="SVGID_22_" cx="270.352" cy="252.761" gradientUnits="userSpaceOnUse" r="39.579" xlink:href="#lg7"/><radialGradient id="SVGID_23_" cx="278.175" cy="214.741" gradientTransform="matrix(1 0 0 .562 0 93.962)" gradientUnits="userSpaceOnUse" r="36.72" xlink:href="#lg6"/><radialGradient id="SVGID_24_" cx="270.352" cy="191.271" gradientUnits="userSpaceOnUse" r="39.579" xlink:href="#lg7"/><radialGradient id="SVGID_25_" cx="278.175" cy="153.251" gradientTransform="matrix(1 0 0 .562 0 67.056)" gradientUnits="userSpaceOnUse" r="36.72" xlink:href="#lg6"/><radialGradient id="SVGID_26_" cx="270.352" cy="129.781" gradientUnits="userSpaceOnUse" r="39.579" xlink:href="#lg7"/><linearGradient id="lg8"><stop offset=".015" stop-color="#bed8fb"/><stop offset=".4762" stop-color="#93bffb"/><stop offset=".6651" stop-color="#80b4fb"/><stop offset=".8679" stop-color="#6faafa"/><stop offset="1" stop-color="#61a2f9"/></linearGradient><radialGradient id="SVGID_27_" cx="412.897" cy="460.7" gradientTransform="matrix(1 0 0 .562 0 201.583)" gradientUnits="userSpaceOnUse" r="36.72" xlink:href="#lg8"/><linearGradient id="lg9"><stop offset="0" stop-color="#f4fbff"/><stop offset=".5145" stop-color="#cbe2ff"/><stop offset="1" stop-color="#bed8fb"/></linearGradient><radialGradient id="SVGID_28_" cx="405.074" cy="437.23" gradientUnits="userSpaceOnUse" r="39.579" xlink:href="#lg9"/><radialGradient id="SVGID_29_" cx="412.897" cy="399.21" gradientTransform="matrix(1 0 0 .562 0 174.678)" gradientUnits="userSpaceOnUse" r="36.72" xlink:href="#lg8"/><radialGradient id="SVGID_30_" cx="405.074" cy="375.741" gradientUnits="userSpaceOnUse" r="39.579" xlink:href="#lg9"/><radialGradient id="SVGID_31_" cx="412.897" cy="337.72" gradientTransform="matrix(1 0 0 .562 0 147.773)" gradientUnits="userSpaceOnUse" r="36.72" xlink:href="#lg8"/><radialGradient id="SVGID_32_" cx="405.074" cy="314.251" gradientUnits="userSpaceOnUse" r="39.579" xlink:href="#lg9"/><radialGradient id="SVGID_33_" cx="412.897" cy="276.23" gradientTransform="matrix(1 0 0 .562 0 120.867)" gradientUnits="userSpaceOnUse" r="36.72" xlink:href="#lg8"/><radialGradient id="SVGID_34_" cx="405.074" cy="252.761" gradientUnits="userSpaceOnUse" r="39.579" xlink:href="#lg9"/><radialGradient id="SVGID_35_" cx="412.897" cy="214.741" gradientTransform="matrix(1 0 0 .562 0 93.962)" gradientUnits="userSpaceOnUse" r="36.72" xlink:href="#lg8"/><radialGradient id="SVGID_36_" cx="405.074" cy="191.271" gradientUnits="userSpaceOnUse" r="39.579" xlink:href="#lg9"/><radialGradient id="SVGID_37_" cx="412.897" cy="153.251" gradientTransform="matrix(1 0 0 .562 0 67.056)" gradientUnits="userSpaceOnUse" r="36.72" xlink:href="#lg8"/><radialGradient id="SVGID_38_" cx="405.074" cy="129.781" gradientUnits="userSpaceOnUse" r="39.579" xlink:href="#lg9"/><radialGradient id="SVGID_39_" cx="412.897" cy="91.761" gradientTransform="matrix(1 0 0 .562 0 40.151)" gradientUnits="userSpaceOnUse" r="36.72" xlink:href="#lg8"/><radialGradient id="SVGID_40_" cx="405.074" cy="68.292" gradientUnits="userSpaceOnUse" r="39.579" xlink:href="#lg9"/><radialGradient id="SVGID_41_" cx="412.897" cy="30.271" gradientTransform="matrix(1 0 0 .562 0 13.245)" gradientUnits="userSpaceOnUse" r="36.72" xlink:href="#lg8"/><radialGradient id="SVGID_42_" cx="405.074" cy="6.802" gradientUnits="userSpaceOnUse" r="39.579" xlink:href="#lg9"/><linearGradient id="lg10"><stop offset="0" stop-color="#f4dd45"/><stop offset=".2362" stop-color="#f2d740"/><stop offset=".5521" stop-color="#edc631"/><stop offset=".5974" stop-color="#ecc32e"/><stop offset="1" stop-color="#e49824"/></linearGradient><radialGradient id="SVGID_43_" cx="223.287" cy="469.832" gradientTransform="matrix(-1 0 0 -.753 446.575 823.824)" gradientUnits="userSpaceOnUse" r="81.017" xlink:href="#lg10"/><radialGradient id="SVGID_44_" cx="223.287" cy="408.342" gradientTransform="matrix(-1 0 0 -.753 446.575 716.005)" gradientUnits="userSpaceOnUse" r="81.017" xlink:href="#lg10"/><radialGradient id="SVGID_45_" cx="223.287" cy="346.852" gradientTransform="matrix(-1 0 0 -.753 446.575 608.186)" gradientUnits="userSpaceOnUse" r="81.017" xlink:href="#lg10"/><radialGradient id="SVGID_46_" cx="223.287" cy="285.362" gradientTransform="matrix(-1 0 0 -.753 446.575 500.367)" gradientUnits="userSpaceOnUse" r="81.017" xlink:href="#lg10"/><radialGradient id="SVGID_47_" cx="358.01" cy="469.832" gradientTransform="matrix(-1 0 0 -.753 716.02 823.824)" gradientUnits="userSpaceOnUse" r="81.017" xlink:href="#lg6"/><radialGradient id="SVGID_48_" cx="358.01" cy="408.342" gradientTransform="matrix(-1 0 0 -.753 716.02 716.005)" gradientUnits="userSpaceOnUse" r="81.017" xlink:href="#lg6"/><radialGradient id="SVGID_49_" cx="358.01" cy="346.852" gradientTransform="matrix(-1 0 0 -.753 716.02 608.186)" gradientUnits="userSpaceOnUse" r="81.017" xlink:href="#lg6"/><radialGradient id="SVGID_50_" cx="358.01" cy="285.362" gradientTransform="matrix(-1 0 0 -.753 716.02 500.367)" gradientUnits="userSpaceOnUse" r="81.017" xlink:href="#lg6"/><radialGradient id="SVGID_51_" cx="358.01" cy="223.872" gradientTransform="matrix(-1 0 0 -.753 716.02 392.548)" gradientUnits="userSpaceOnUse" r="81.017" xlink:href="#lg6"/><radialGradient id="SVGID_52_" cx="358.01" cy="162.382" gradientTransform="matrix(-1 0 0 -.753 716.02 284.729)" gradientUnits="userSpaceOnUse" r="81.017" xlink:href="#lg6"/><linearGradient id="lg11"><stop offset="0" stop-color="#80b4fb"/><stop offset=".1461" stop-color="#7aaffb"/><stop offset=".3416" stop-color="#69a1fa"/><stop offset=".5158" stop-color="#5490f9"/><stop offset="1" stop-color="#407093"/></linearGradient><radialGradient id="SVGID_53_" cx="492.733" cy="469.832" gradientTransform="matrix(-1 0 0 -.753 985.466 823.824)" gradientUnits="userSpaceOnUse" r="81.017" xlink:href="#lg11"/><radialGradient id="SVGID_54_" cx="492.733" cy="408.342" gradientTransform="matrix(-1 0 0 -.753 985.466 716.005)" gradientUnits="userSpaceOnUse" r="81.017" xlink:href="#lg11"/><radialGradient id="SVGID_55_" cx="492.733" cy="346.852" gradientTransform="matrix(-1 0 0 -.753 985.466 608.186)" gradientUnits="userSpaceOnUse" r="81.017" xlink:href="#lg11"/><radialGradient id="SVGID_56_" cx="492.733" cy="285.362" gradientTransform="matrix(-1 0 0 -.753 985.466 500.367)" gradientUnits="userSpaceOnUse" r="81.017" xlink:href="#lg11"/><radialGradient id="SVGID_57_" cx="492.733" cy="223.872" gradientTransform="matrix(-1 0 0 -.753 985.466 392.548)" gradientUnits="userSpaceOnUse" r="81.017" xlink:href="#lg11"/><radialGradient id="SVGID_58_" cx="492.733" cy="162.382" gradientTransform="matrix(-1 0 0 -.753 985.466 284.729)" gradientUnits="userSpaceOnUse" r="81.017" xlink:href="#lg11"/><radialGradient id="SVGID_59_" cx="492.733" cy="100.893" gradientTransform="matrix(-1 0 0 -.753 985.466 176.91)" gradientUnits="userSpaceOnUse" r="81.017" xlink:href="#lg11"/><radialGradient id="SVGID_60_" cx="492.733" cy="39.403" gradientTransform="matrix(-1 0 0 -.753 985.466 69.091)" gradientUnits="userSpaceOnUse" r="81.017" xlink:href="#lg11"/><radialGradient id="SVGID_61_" cx="312.618" cy="1810.448" gradientTransform="matrix(.931 0 0 .112 -38.569 275.248)" gradientUnits="userSpaceOnUse" r="253.727"><stop offset="0" stop-color="#c6c1c8"/><stop offset=".2432" stop-color="#dddbdf"/><stop offset=".4962" stop-color="#f1f1f4"/><stop offset=".888" stop-color="#fff"/></radialGradient><g><path d="m24.063 456.134-24.063 6.705c0 7.956 6.45 14.405 14.405 14.405h16.625c-3.123 0-6.296-13.208-6.967-21.11z" fill="url(#SVGID_1_)"/><path d="m31.03 435.025h-16.625c-7.955 0-14.405 6.449-14.405 14.405v13.409h25.339c-1.04-12.232.857-27.814 5.691-27.814z" fill="url(#SVGID_2_)"/><path d="m24.063 394.645-24.063 6.704c0 7.956 6.45 14.405 14.405 14.405h16.625c-3.123.001-6.296-13.207-6.967-21.109z" fill="url(#SVGID_3_)"/><path d="m31.03 373.535h-16.625c-7.955 0-14.405 6.449-14.405 14.405v13.409h25.339c-1.04-12.232.857-27.814 5.691-27.814z" fill="url(#SVGID_4_)"/><path d="m93.426 415.755h-62.396c-7.956 0-14.405-6.45-14.405-14.405v-13.41c0-7.956 6.45-14.405 14.405-14.405h62.397c7.956 0 14.405 6.45 14.405 14.405v13.409c0 7.956-6.45 14.406-14.406 14.406z" fill="url(#SVGID_5_)"/><path d="m93.426 477.244h-62.396c-7.956 0-14.405-6.45-14.405-14.405v-13.409c0-7.956 6.45-14.405 14.405-14.405h62.397c7.956 0 14.405 6.45 14.405 14.405v13.409c0 7.956-6.45 14.405-14.406 14.405z" fill="url(#SVGID_6_)"/><path d="m158.785 456.134-24.063 6.704c0 7.956 6.449 14.405 14.405 14.405h16.624c-3.121.001-6.294-13.207-6.966-21.109z" fill="url(#SVGID_7_)"/><path d="m165.752 435.025h-16.624c-7.956 0-14.405 6.45-14.405 14.405v13.409h25.339c-1.04-12.232.857-27.814 5.69-27.814z" fill="url(#SVGID_8_)"/><path d="m158.785 394.645-24.063 6.704c0 7.956 6.449 14.405 14.405 14.405h16.624c-3.121.001-6.294-13.207-6.966-21.109z" fill="url(#SVGID_9_)"/><path d="m165.752 373.535h-16.624c-7.956 0-14.405 6.45-14.405 14.406v13.409h25.339c-1.04-12.233.857-27.815 5.69-27.815z" fill="url(#SVGID_10_)"/><path d="m158.785 333.155-24.063 6.704c0 7.956 6.449 14.405 14.405 14.405h16.624c-3.121.001-6.294-13.207-6.966-21.109z" fill="url(#SVGID_11_)"/><path d="m165.752 312.045h-16.624c-7.956 0-14.405 6.45-14.405 14.406v13.409h25.339c-1.04-12.232.857-27.815 5.69-27.815z" fill="url(#SVGID_12_)"/><path d="m158.785 271.665-24.063 6.704c0 7.956 6.449 14.405 14.405 14.405h16.624c-3.121.001-6.294-13.207-6.966-21.109z" fill="url(#SVGID_13_)"/><path d="m165.752 250.555h-16.624c-7.956 0-14.405 6.45-14.405 14.406v13.409h25.339c-1.04-12.232.857-27.815 5.69-27.815z" fill="url(#SVGID_14_)"/><path d="m293.508 456.134-24.063 6.704c0 7.956 6.449 14.405 14.405 14.405h16.624c-3.121.001-6.294-13.207-6.966-21.109z" fill="url(#SVGID_15_)"/><path d="m300.475 435.025h-16.624c-7.956 0-14.405 6.45-14.405 14.405v13.409h25.339c-1.04-12.232.857-27.814 5.69-27.814z" fill="url(#SVGID_16_)"/><path d="m293.508 394.645-24.063 6.704c0 7.956 6.449 14.405 14.405 14.405h16.624c-3.121.001-6.294-13.207-6.966-21.109z" fill="url(#SVGID_17_)"/><path d="m300.475 373.535h-16.624c-7.956 0-14.405 6.45-14.405 14.406v13.409h25.339c-1.04-12.233.857-27.815 5.69-27.815z" fill="url(#SVGID_18_)"/><path d="m293.508 333.155-24.063 6.704c0 7.956 6.449 14.405 14.405 14.405h16.624c-3.121.001-6.294-13.207-6.966-21.109z" fill="url(#SVGID_19_)"/><path d="m300.475 312.045h-16.624c-7.956 0-14.405 6.45-14.405 14.406v13.409h25.339c-1.04-12.232.857-27.815 5.69-27.815z" fill="url(#SVGID_20_)"/><path d="m293.508 271.665-24.063 6.704c0 7.956 6.449 14.405 14.405 14.405h16.624c-3.121.001-6.294-13.207-6.966-21.109z" fill="url(#SVGID_21_)"/><path d="m300.475 250.555h-16.624c-7.956 0-14.405 6.45-14.405 14.406v13.409h25.339c-1.04-12.232.857-27.815 5.69-27.815z" fill="url(#SVGID_22_)"/><path d="m293.508 210.175-24.063 6.704c0 7.956 6.449 14.405 14.405 14.405h16.624c-3.121.001-6.294-13.207-6.966-21.109z" fill="url(#SVGID_23_)"/><path d="m300.475 189.065h-16.624c-7.956 0-14.405 6.45-14.405 14.406v13.409h25.339c-1.04-12.232.857-27.815 5.69-27.815z" fill="url(#SVGID_24_)"/><path d="m293.508 148.685-24.063 6.704c0 7.956 6.449 14.405 14.405 14.405h16.624c-3.121.001-6.294-13.207-6.966-21.109z" fill="url(#SVGID_25_)"/><path d="m300.475 127.575h-16.624c-7.956 0-14.405 6.45-14.405 14.406v13.409h25.339c-1.04-12.232.857-27.815 5.69-27.815z" fill="url(#SVGID_26_)"/><path d="m428.231 456.134-24.063 6.704c0 7.956 6.45 14.405 14.405 14.405h16.624c-3.122.001-6.295-13.207-6.966-21.109z" fill="url(#SVGID_27_)"/><path d="m435.198 435.025h-16.624c-7.956 0-14.405 6.45-14.405 14.405v13.409h25.339c-1.041-12.232.856-27.814 5.69-27.814z" fill="url(#SVGID_28_)"/><path d="m428.231 394.645-24.063 6.704c0 7.956 6.45 14.405 14.405 14.405h16.624c-3.122.001-6.295-13.207-6.966-21.109z" fill="url(#SVGID_29_)"/><path d="m435.198 373.535h-16.624c-7.956 0-14.405 6.45-14.405 14.406v13.409h25.339c-1.041-12.233.856-27.815 5.69-27.815z" fill="url(#SVGID_30_)"/><path d="m428.231 333.155-24.063 6.704c0 7.956 6.45 14.405 14.405 14.405h16.624c-3.122.001-6.295-13.207-6.966-21.109z" fill="url(#SVGID_31_)"/><path d="m435.198 312.045h-16.624c-7.956 0-14.405 6.45-14.405 14.406v13.409h25.339c-1.041-12.232.856-27.815 5.69-27.815z" fill="url(#SVGID_32_)"/><path d="m428.231 271.665-24.063 6.704c0 7.956 6.45 14.405 14.405 14.405h16.624c-3.122.001-6.295-13.207-6.966-21.109z" fill="url(#SVGID_33_)"/><path d="m435.198 250.555h-16.624c-7.956 0-14.405 6.45-14.405 14.406v13.409h25.339c-1.041-12.232.856-27.815 5.69-27.815z" fill="url(#SVGID_34_)"/><path d="m428.231 210.175-24.063 6.704c0 7.956 6.45 14.405 14.405 14.405h16.624c-3.122.001-6.295-13.207-6.966-21.109z" fill="url(#SVGID_35_)"/><path d="m435.198 189.065h-16.624c-7.956 0-14.405 6.45-14.405 14.406v13.409h25.339c-1.041-12.232.856-27.815 5.69-27.815z" fill="url(#SVGID_36_)"/><path d="m428.231 148.685-24.063 6.704c0 7.956 6.45 14.405 14.405 14.405h16.624c-3.122.001-6.295-13.207-6.966-21.109z" fill="url(#SVGID_37_)"/><path d="m435.198 127.575h-16.624c-7.956 0-14.405 6.45-14.405 14.406v13.409h25.339c-1.041-12.232.856-27.815 5.69-27.815z" fill="url(#SVGID_38_)"/><path d="m428.231 87.196-24.063 6.704c0 7.956 6.45 14.405 14.405 14.405h16.624c-3.122 0-6.295-13.208-6.966-21.109z" fill="url(#SVGID_39_)"/><path d="m435.198 66.086h-16.624c-7.956 0-14.405 6.45-14.405 14.406v13.408h25.339c-1.041-12.232.856-27.814 5.69-27.814z" fill="url(#SVGID_40_)"/><path d="m428.231 25.706-24.063 6.704c0 7.956 6.45 14.405 14.405 14.405h16.624c-3.122.001-6.295-13.207-6.966-21.109z" fill="url(#SVGID_41_)"/><path d="m435.198 4.596h-16.624c-7.956 0-14.405 6.45-14.405 14.406v13.408h25.339c-1.041-12.232.856-27.814 5.69-27.814z" fill="url(#SVGID_42_)"/><path d="m228.149 477.244h-62.397c-7.956 0-14.405-6.45-14.405-14.405v-13.409c0-7.956 6.45-14.405 14.405-14.405h62.397c7.956 0 14.405 6.45 14.405 14.405v13.409c.001 7.956-6.449 14.405-14.405 14.405z" fill="url(#SVGID_43_)"/><path d="m228.149 415.755h-62.397c-7.956 0-14.405-6.45-14.405-14.405v-13.41c0-7.956 6.45-14.405 14.405-14.405h62.397c7.956 0 14.405 6.45 14.405 14.405v13.409c.001 7.956-6.449 14.406-14.405 14.406z" fill="url(#SVGID_44_)"/><path d="m228.149 354.265h-62.397c-7.956 0-14.405-6.45-14.405-14.405v-13.41c0-7.956 6.45-14.405 14.405-14.405h62.397c7.956 0 14.405 6.45 14.405 14.405v13.409c.001 7.956-6.449 14.406-14.405 14.406z" fill="url(#SVGID_45_)"/><path d="m228.149 292.775h-62.397c-7.956 0-14.405-6.45-14.405-14.405v-13.409c0-7.956 6.45-14.405 14.405-14.405h62.397c7.956 0 14.405 6.45 14.405 14.405v13.409c.001 7.955-6.449 14.405-14.405 14.405z" fill="url(#SVGID_46_)"/><path d="m362.872 477.244h-62.397c-7.956 0-14.405-6.45-14.405-14.405v-13.409c0-7.956 6.45-14.405 14.405-14.405h62.397c7.956 0 14.405 6.45 14.405 14.405v13.409c0 7.956-6.449 14.405-14.405 14.405z" fill="url(#SVGID_47_)"/><path d="m362.872 415.755h-62.397c-7.956 0-14.405-6.45-14.405-14.405v-13.41c0-7.956 6.45-14.405 14.405-14.405h62.397c7.956 0 14.405 6.45 14.405 14.405v13.409c0 7.956-6.449 14.406-14.405 14.406z" fill="url(#SVGID_48_)"/><path d="m362.872 354.265h-62.397c-7.956 0-14.405-6.45-14.405-14.405v-13.41c0-7.956 6.45-14.405 14.405-14.405h62.397c7.956 0 14.405 6.45 14.405 14.405v13.409c0 7.956-6.449 14.406-14.405 14.406z" fill="url(#SVGID_49_)"/><path d="m362.872 292.775h-62.397c-7.956 0-14.405-6.45-14.405-14.405v-13.409c0-7.956 6.45-14.405 14.405-14.405h62.397c7.956 0 14.405 6.45 14.405 14.405v13.409c0 7.955-6.449 14.405-14.405 14.405z" fill="url(#SVGID_50_)"/><path d="m362.872 231.285h-62.397c-7.956 0-14.405-6.45-14.405-14.405v-13.409c0-7.956 6.45-14.405 14.405-14.405h62.397c7.956 0 14.405 6.45 14.405 14.405v13.409c0 7.956-6.449 14.405-14.405 14.405z" fill="url(#SVGID_51_)"/><path d="m362.872 169.795h-62.397c-7.956 0-14.405-6.45-14.405-14.405v-13.409c0-7.956 6.45-14.405 14.405-14.405h62.397c7.956 0 14.405 6.45 14.405 14.405v13.409c0 7.956-6.449 14.405-14.405 14.405z" fill="url(#SVGID_52_)"/><path d="m497.595 477.244h-62.397c-7.956 0-14.405-6.45-14.405-14.405v-13.409c0-7.956 6.45-14.405 14.405-14.405h62.397c7.956 0 14.405 6.45 14.405 14.405v13.409c0 7.956-6.45 14.405-14.405 14.405z" fill="url(#SVGID_53_)"/><path d="m497.595 415.755h-62.397c-7.956 0-14.405-6.45-14.405-14.405v-13.41c0-7.956 6.45-14.405 14.405-14.405h62.397c7.956 0 14.405 6.45 14.405 14.405v13.409c0 7.956-6.45 14.406-14.405 14.406z" fill="url(#SVGID_54_)"/><path d="m497.595 354.265h-62.397c-7.956 0-14.405-6.45-14.405-14.405v-13.41c0-7.956 6.45-14.405 14.405-14.405h62.397c7.956 0 14.405 6.45 14.405 14.405v13.409c0 7.956-6.45 14.406-14.405 14.406z" fill="url(#SVGID_55_)"/><path d="m497.595 292.775h-62.397c-7.956 0-14.405-6.45-14.405-14.405v-13.409c0-7.956 6.45-14.405 14.405-14.405h62.397c7.956 0 14.405 6.45 14.405 14.405v13.409c0 7.955-6.45 14.405-14.405 14.405z" fill="url(#SVGID_56_)"/><path d="m497.595 231.285h-62.397c-7.956 0-14.405-6.45-14.405-14.405v-13.409c0-7.956 6.45-14.405 14.405-14.405h62.397c7.956 0 14.405 6.45 14.405 14.405v13.409c0 7.956-6.45 14.405-14.405 14.405z" fill="url(#SVGID_57_)"/><path d="m497.595 169.795h-62.397c-7.956 0-14.405-6.45-14.405-14.405v-13.409c0-7.956 6.45-14.405 14.405-14.405h62.397c7.956 0 14.405 6.45 14.405 14.405v13.409c0 7.956-6.45 14.405-14.405 14.405z" fill="url(#SVGID_58_)"/><path d="m497.595 108.305h-62.397c-7.956 0-14.405-6.45-14.405-14.405v-13.409c0-7.956 6.45-14.405 14.405-14.405h62.397c7.956 0 14.405 6.45 14.405 14.405v13.409c0 7.956-6.45 14.405-14.405 14.405z" fill="url(#SVGID_59_)"/><path d="m497.595 46.816h-62.397c-7.956 0-14.405-6.45-14.405-14.405v-13.41c0-7.956 6.45-14.405 14.405-14.405h62.397c7.956 0 14.405 6.45 14.405 14.405v13.409c0 7.956-6.45 14.406-14.405 14.406z" fill="url(#SVGID_60_)"/><path d="m255.695 507.404c135.956 0 246.171-13.503 246.171-30.16h-492.342c0 16.657 110.214 30.16 246.171 30.16z" fill="url(#SVGID_61_)"/></g></svg>