<svg width="156" height="64" viewBox="0 0 156 64" fill="none" xmlns="http://www.w3.org/2000/svg">
<path d="M9.48527 29.3C15.2453 29.3 17.9753 26.42 17.9753 23.06C17.9753 15.35 5.52527 18.26 5.52527 13.79C5.52527 12.2 6.84527 10.94 10.0853 10.94C11.9153 10.94 13.9853 11.48 15.8753 12.59L17.1053 9.56C15.2753 8.36 12.6353 7.7 10.1153 7.7C4.35527 7.7 1.65527 10.58 1.65527 13.97C1.65527 21.77 14.1353 18.8 14.1353 23.33C14.1353 24.89 12.7553 26.06 9.48527 26.06C6.90527 26.06 4.23527 25.1 2.55527 23.75L1.20527 26.78C2.94527 28.28 6.21527 29.3 9.48527 29.3ZM30.0625 25.46C29.4925 25.91 28.7425 26.12 27.9625 26.12C26.5225 26.12 25.7425 25.28 25.7425 23.72V16.1H30.0325V13.1H25.7425V9.44H21.9925V13.1H19.3525V16.1H21.9925V23.81C21.9925 27.35 24.0025 29.21 27.5125 29.21C28.8625 29.21 30.2125 28.85 31.1125 28.13L30.0625 25.46ZM40.87 29.21C45.85 29.21 49.42 25.79 49.42 20.99C49.42 16.19 45.85 12.8 40.87 12.8C35.95 12.8 32.35 16.19 32.35 20.99C32.35 25.79 35.95 29.21 40.87 29.21ZM40.87 26C38.17 26 36.13 24.05 36.13 20.99C36.13 17.93 38.17 15.98 40.87 15.98C43.6 15.98 45.64 17.93 45.64 20.99C45.64 24.05 43.6 26 40.87 26ZM60.3559 29.21C63.4759 29.21 65.9659 27.86 67.1959 25.46L64.3159 23.78C63.3559 25.31 61.9159 26 60.3259 26C57.5659 26 55.4659 24.11 55.4659 20.99C55.4659 17.9 57.5659 15.98 60.3259 15.98C61.9159 15.98 63.3559 16.67 64.3159 18.2L67.1959 16.52C65.9659 14.09 63.4759 12.8 60.3559 12.8C55.2859 12.8 51.6859 16.19 51.6859 20.99C51.6859 25.79 55.2859 29.21 60.3559 29.21ZM82.3811 29H86.9411L79.6211 19.7L86.3111 12.98H81.8111L74.0411 20.18V6.74H70.2911V29H74.0411V24.77L76.8311 22.13L82.3811 29ZM93.8153 29.21C98.3153 29.21 101.075 27.26 101.075 24.26C101.075 17.99 91.1753 20.87 91.1753 17.63C91.1753 16.58 92.2553 15.83 94.5353 15.83C96.0653 15.83 97.5953 16.13 99.1253 17.03L100.565 14.18C99.1253 13.31 96.6953 12.8 94.5653 12.8C90.2453 12.8 87.5153 14.78 87.5153 17.81C87.5153 24.2 97.4153 21.32 97.4153 24.38C97.4153 25.49 96.4253 26.15 94.0553 26.15C92.0453 26.15 89.8853 25.49 88.4753 24.56L87.0353 27.41C88.4753 28.43 91.1453 29.21 93.8153 29.21Z" fill="#7B1DA2"/>
<path d="M30.666 56.3C34.116 56.3 37.056 55.07 39.006 52.79L36.486 50.39C34.956 52.07 33.066 52.88 30.876 52.88C26.526 52.88 23.376 49.82 23.376 45.5C23.376 41.18 26.526 38.12 30.876 38.12C33.066 38.12 34.956 38.93 36.486 40.58L39.006 38.21C37.056 35.93 34.116 34.7 30.696 34.7C24.246 34.7 19.446 39.23 19.446 45.5C19.446 51.77 24.246 56.3 30.666 56.3ZM51.4729 39.8C49.2529 39.8 47.3629 40.52 46.1329 41.84V33.74H42.3829V56H46.1329V47.9C46.1329 44.69 47.9329 43.07 50.6029 43.07C53.0029 43.07 54.4129 44.45 54.4129 47.3V56H58.1629V46.82C58.1629 41.99 55.3129 39.8 51.4729 39.8ZM69.04 39.8C66.46 39.8 63.97 40.46 62.26 41.78L63.73 44.51C64.93 43.52 66.79 42.92 68.59 42.92C71.26 42.92 72.58 44.21 72.58 46.4V46.64H68.44C63.58 46.64 61.78 48.74 61.78 51.41C61.78 54.2 64.09 56.21 67.75 56.21C70.15 56.21 71.89 55.43 72.79 54.05V56H76.33V46.61C76.33 41.99 73.66 39.8 69.04 39.8ZM68.53 53.48C66.61 53.48 65.47 52.61 65.47 51.26C65.47 50.09 66.16 49.13 68.71 49.13H72.58V50.99C71.95 52.64 70.36 53.48 68.53 53.48ZM84.7126 42.32V39.98H81.1426V56H84.8926V48.23C84.8926 44.96 86.6926 43.28 89.5426 43.28C89.8126 43.28 90.0826 43.31 90.4126 43.37V39.8C87.7426 39.8 85.7926 40.64 84.7126 42.32ZM102.76 52.46C102.19 52.91 101.44 53.12 100.66 53.12C99.2197 53.12 98.4397 52.28 98.4397 50.72V43.1H102.73V40.1H98.4397V36.44H94.6897V40.1H92.0497V43.1H94.6897V50.81C94.6897 54.35 96.6997 56.21 100.21 56.21C101.56 56.21 102.91 55.85 103.81 55.13L102.76 52.46ZM111.845 56.21C116.345 56.21 119.105 54.26 119.105 51.26C119.105 44.99 109.205 47.87 109.205 44.63C109.205 43.58 110.285 42.83 112.565 42.83C114.095 42.83 115.625 43.13 117.155 44.03L118.595 41.18C117.155 40.31 114.725 39.8 112.595 39.8C108.275 39.8 105.545 41.78 105.545 44.81C105.545 51.2 115.445 48.32 115.445 51.38C115.445 52.49 114.455 53.15 112.085 53.15C110.075 53.15 107.915 52.49 106.505 51.56L105.065 54.41C106.505 55.43 109.175 56.21 111.845 56.21Z" fill="#7B1DA2"/>
<path d="M152 56.3333V37.6667C152 36.9594 151.719 36.2811 151.219 35.781C150.719 35.281 150.041 35 149.333 35H130.667C129.959 35 129.281 35.281 128.781 35.781C128.281 36.2811 128 36.9594 128 37.6667V56.3333C128 57.0406 128.281 57.7189 128.781 58.219C129.281 58.719 129.959 59 130.667 59H149.333C150.041 59 150.719 58.719 151.219 58.219C151.719 57.7189 152 57.0406 152 56.3333ZM136 55H133.333V47H136V55ZM141.333 55H138.667V40.3333H141.333V55ZM146.667 55H144V44.3333H146.667V55Z" fill="#7B1DA2"/>
</svg>
